<svg width="125" height="112" viewBox="0 0 125 112" fill="none" xmlns="http://www.w3.org/2000/svg">
<g clip-path="url(#clip0_182_41)">
<path d="M110.05 39.7173C109.413 39.3304 109.004 38.6481 109.004 37.9022C108.747 27.6682 104.451 17.9516 97.0546 10.8738C89.6582 3.79593 79.7621 -0.0683829 69.5266 0.124438C61.9038 0.0622373 54.4253 2.20418 47.9912 6.29252C42.3544 9.87426 37.7295 14.8162 34.5306 20.6441C33.6865 22.1819 32.1883 23.2622 30.465 23.5898C22.5897 25.0873 15.39 29.1234 9.9922 35.1195C3.96177 41.8185 0.599919 50.4978 0.544434 59.5111C0.554339 64.2868 1.50543 69.0138 3.34332 73.4217C5.18121 77.8296 7.86987 81.8321 11.2556 85.2002C14.6413 88.5684 18.6577 91.2362 23.0751 93.0512C27.4925 94.8662 32.2243 95.7927 37 95.7778H47.3889C49.4753 95.7778 51.1666 94.0864 51.1666 92C51.1666 89.9136 49.4753 88.2222 47.3889 88.2222H37C29.6981 87.827 22.8174 84.6785 17.745 79.4112C12.6725 74.1439 9.78546 67.1495 9.66568 59.8378C9.54589 52.5262 12.2023 45.441 17.0995 40.0104C21.9967 34.5798 28.7705 31.2075 36.0555 30.5733C37.5755 30.5733 38.9343 29.6211 39.4555 28.1933C41.7986 22.1078 45.9532 16.8883 51.3581 13.24C56.763 9.59166 63.1576 7.69048 69.6778 7.79333C77.9097 7.59991 85.8845 10.6681 91.864 16.3292C97.8435 21.9902 101.343 29.7853 101.6 38.0155C101.652 39.0223 101.652 40.031 101.6 41.0378L101.596 41.0698C101.418 42.675 102.287 44.2143 103.753 44.8911C108.503 47.0307 112.37 50.7409 114.705 55.3973C117.04 60.0537 117.7 65.3723 116.573 70.4581C115.447 75.5439 112.604 80.0866 108.521 83.3219C104.439 86.5573 99.3664 88.2877 94.1578 88.2222H77.6111C75.5247 88.2222 73.8333 89.9136 73.8333 92C73.8333 94.0864 75.5247 95.7778 77.6111 95.7778H94.1578C100.876 95.826 107.42 93.6339 112.753 89.5481C118.087 85.4622 121.907 79.7155 123.61 73.216C125.313 66.7165 124.801 59.8349 122.156 53.6586C119.67 47.8534 115.432 42.9824 110.05 39.7173Z" fill="black"/>
<path d="M78.6688 72.5444C79.4224 72.5564 80.1623 72.3428 80.7935 71.9309C81.4247 71.519 81.9182 70.9278 82.2107 70.2331C82.5032 69.5385 82.5812 68.7723 82.4347 68.033C82.2883 67.2937 81.924 66.6151 81.3888 66.0844L66.0355 50.7311C64.0828 48.7785 60.917 48.7785 58.9644 50.7311L43.611 66.0844C42.9921 66.8071 42.6687 67.7368 42.7055 68.6875C42.7422 69.6383 43.1363 70.5402 43.8091 71.213C44.4819 71.8858 45.3838 72.28 46.3346 72.3167C47.2854 72.3534 48.215 72.03 48.9377 71.4111L58.7221 61.7778V108.056C58.7221 109.057 59.1202 110.018 59.8286 110.727C60.5371 111.435 61.498 111.833 62.4999 111.833C63.5018 111.833 64.4627 111.435 65.1712 110.727C65.8797 110.018 66.2777 109.057 66.2777 108.056V61.7778L75.9866 71.4867C76.7057 72.18 77.6701 72.5603 78.6688 72.5444Z" fill="black"/>
</g>
<defs>
<clipPath id="clip0_182_41">
<rect width="124" height="112" fill="white" transform="translate(0.5)"/>
</clipPath>
</defs>
</svg>
